<?xml version="1.0" encoding="utf-8"?>
<svg xmlns="http://www.w3.org/2000/svg" version="1.1" viewBox="0 0 1400 440">
	<title>The titlepage for the Standard Ebooks edition of Death Comes for the Archbishop, by Willa Cather</title>
	<g aria-label="DEATH COMES FOR">
		<path d="M206.52,52.81l22.36,0.00c21.15,0.00,38.92,16.09,38.92,38.55c0.00,22.55-17.68,38.64-38.92,38.64l-22.36,0.00l0.00-77.19z  M224.11,114.28l2.71,0.00c13.01,0.00,21.89-9.92,21.99-22.83c0.00-12.91-8.89-22.92-21.99-22.92l-2.71,0.00l0.00,45.75z"/>
		<path d="M324.74,52.81l0.00,15.44l-26.57,0.00l0.00,15.35l25.45,0.00l0.00,15.44l-25.45,0.00l0.00,15.53l26.57,0.00l0.00,15.44l-44.16,0.00l0.00-77.19l44.16,0.00z"/>
		<path d="M379.61,52.81l31.16,77.19l-18.90,0.00l-5.71-15.44l-29.38,0.00l-5.71,15.44l-18.90,0.00l31.16-77.19l16.28,0.00z  M380.17,99.12l-8.61-22.46l-0.19,0.00l-8.61,22.46l17.40,0.00z"/>
		<path d="M409.40,68.25l0.00-15.44l54.27,0.00l0.00,15.44l-18.34,0.00l0.00,61.75l-17.59,0.00l0.00-61.75l-18.34,0.00z"/>
		<path d="M492.63,99.03l0.00,30.97l-17.59,0.00l0.00-77.19l17.59,0.00l0.00,30.78l24.89,0.00l0.00-30.78l17.59,0.00l0.00,77.19l-17.59,0.00l0.00-30.97l-24.89,0.00z"/>
		<path d="M619.96,114.09c8.98,0.00,15.16-4.77,15.16-4.77l7.49,14.97s-8.61,7.11-25.36,7.11c-21.80,0.00-41.82-17.78-41.82-39.86c0.00-22.18,19.93-40.14,41.82-40.14c16.75,0.00,25.36,7.11,25.36,7.11l-7.49,14.97s-6.18-4.77-15.16-4.77c-17.68,0.00-25.45,12.35-25.45,22.64c0.00,10.39,7.77,22.74,25.45,22.74z"/>
		<path d="M650.88,91.36c0.00-22.55,17.68-39.95,38.92-39.95c21.43,0.00,38.83,17.40,38.83,39.95s-16.65,40.05-38.83,40.05c-22.83,0.00-38.92-17.50-38.92-40.05z  M669.87,91.36c0.00,11.51,5.52,23.02,19.93,23.02c14.04,0.00,19.84-11.51,19.84-23.02s-6.18-23.02-19.84-23.02c-13.57,0.00-19.93,11.51-19.93,23.02z"/>
		<path d="M805.21,130.00l-3.65-45.75l-0.47,0.00l-15.81,45.29l-10.48,0.00l-15.81-45.29l-0.47,0.00l-3.65,45.75l-17.59,0.00l6.92-77.19l18.71,0.00l17.12,44.54l17.12-44.54l18.71,0.00l6.92,77.19l-17.59,0.00z"/>
		<path d="M879.08,52.81l0.00,15.44l-26.57,0.00l0.00,15.35l25.45,0.00l0.00,15.44l-25.45,0.00l0.00,15.53l26.57,0.00l0.00,15.44l-44.16,0.00l0.00-77.19l44.16,0.00z"/>
		<path d="M922.63,51.40c14.04,0.00,23.95,7.30,23.95,7.30l-7.11,14.04s-7.67-5.33-15.63-5.33c-5.99,0.00-9.17,2.71-9.17,6.92c0.00,4.30,7.30,7.39,16.09,11.13c8.61,3.65,18.06,10.95,18.06,21.05c0.00,18.43-14.04,24.89-29.10,24.89c-18.06,0.00-29.01-10.20-29.01-10.20l8.80-14.78s10.29,8.70,18.90,8.70c3.84,0.00,11.13-0.37,11.13-7.58c0.00-5.61-8.23-8.14-17.40-12.73c-9.26-4.58-14.69-11.79-14.69-19.84c0.00-14.41,12.73-23.58,25.17-23.58z"/>
		<path d="M1037.23,52.81l0.00,15.44l-27.04,0.00l0.00,15.35l24.98,0.00l0.00,15.44l-24.98,0.00l0.00,30.97l-17.59,0.00l0.00-77.19l44.63,0.00z"/>
		<path d="M1047.19,91.36c0.00-22.55,17.68-39.95,38.92-39.95c21.43,0.00,38.83,17.40,38.83,39.95s-16.65,40.05-38.83,40.05c-22.83,0.00-38.92-17.50-38.92-40.05z  M1066.19,91.36c0.00,11.51,5.52,23.02,19.93,23.02c14.04,0.00,19.84-11.51,19.84-23.02s-6.18-23.02-19.84-23.02c-13.57,0.00-19.93,11.51-19.93,23.02z"/>
		<path d="M1137.71,52.81l27.60,0.00c14.32,0.00,25.17,7.77,25.17,22.92c0.00,11.60-6.36,19.37-15.81,22.36l26.57,31.91l-22.36,0.00l-23.58-30.50l0.00,30.50l-17.59,0.00l0.00-77.19z  M1155.30,87.05l2.06,0.00c6.64,0.00,14.60-0.47,14.60-10.11s-7.95-10.11-14.60-10.11l-2.06,0.00l0.00,20.21z"/>
	</g>
	<g aria-label="THE ARCHBISHOP">
		<path d="M239.85,168.25l0.00-15.44l54.27,0.00l0.00,15.44l-18.34,0.00l0.00,61.75l-17.59,0.00l0.00-61.75l-18.34,0.00z"/>
		<path d="M323.07,199.03l0.00,30.97l-17.59,0.00l0.00-77.19l17.59,0.00l0.00,30.78l24.89,0.00l0.00-30.78l17.59,0.00l0.00,77.19l-17.59,0.00l0.00-30.97l-24.89,0.00z"/>
		<path d="M425.94,152.81l0.00,15.44l-26.57,0.00l0.00,15.35l25.45,0.00l0.00,15.44l-25.45,0.00l0.00,15.53l26.57,0.00l0.00,15.44l-44.16,0.00l0.00-77.19l44.16,0.00z"/>
		<path d="M510.80,152.81l31.16,77.19l-18.90,0.00l-5.71-15.44l-29.38,0.00l-5.71,15.44l-18.90,0.00l31.16-77.19l16.28,0.00z  M511.36,199.12l-8.61-22.46l-0.19,0.00l-8.61,22.46l17.40,0.00z"/>
		<path d="M549.95,152.81l27.60,0.00c14.32,0.00,25.17,7.77,25.17,22.92c0.00,11.60-6.36,19.37-15.81,22.36l26.57,31.91l-22.36,0.00l-23.58-30.50l0.00,30.50l-17.59,0.00l0.00-77.19z  M567.54,187.05l2.06,0.00c6.64,0.00,14.60-0.47,14.60-10.11s-7.95-10.11-14.60-10.11l-2.06,0.00l0.00,20.21z"/>
		<path d="M663.02,214.09c8.98,0.00,15.16-4.77,15.16-4.77l7.49,14.97s-8.61,7.11-25.36,7.11c-21.80,0.00-41.82-17.78-41.82-39.86c0.00-22.18,19.93-40.14,41.82-40.14c16.75,0.00,25.36,7.11,25.36,7.11l-7.49,14.97s-6.18-4.77-15.16-4.77c-17.68,0.00-25.45,12.35-25.45,22.64c0.00,10.39,7.77,22.74,25.45,22.74z"/>
		<path d="M714.99,199.03l0.00,30.97l-17.59,0.00l0.00-77.19l17.59,0.00l0.00,30.78l24.89,0.00l0.00-30.78l17.59,0.00l0.00,77.19l-17.59,0.00l0.00-30.97l-24.89,0.00z"/>
		<path d="M773.70,152.81l23.95,0.00c13.29,0.00,23.77,4.96,23.77,19.65c0.00,7.11-3.09,13.19-9.64,16.56c9.64,1.68,16.47,7.02,16.47,19.46c0.00,12.73-9.26,21.52-25.26,21.52l-29.29,0.00l0.00-77.19z  M791.29,183.03l1.40,0.00c7.58,0.00,11.70-2.34,11.70-8.80c0.00-5.52-4.02-7.86-11.70-7.86l-1.40,0.00l0.00,16.65z  M791.29,216.43l5.52,0.00c8.33,0.00,12.91-2.53,12.91-8.61c0.00-7.11-4.58-9.64-12.91-9.64l-5.52,0.00l0.00,18.25z"/>
		<path d="M858.61,152.81l0.00,77.19l-17.59,0.00l0.00-77.19l17.59,0.00z"/>
		<path d="M901.41,151.40c14.04,0.00,23.95,7.30,23.95,7.30l-7.11,14.04s-7.67-5.33-15.63-5.33c-5.99,0.00-9.17,2.71-9.17,6.92c0.00,4.30,7.30,7.39,16.09,11.13c8.61,3.65,18.06,10.95,18.06,21.05c0.00,18.43-14.04,24.89-29.10,24.89c-18.06,0.00-29.01-10.20-29.01-10.20l8.80-14.78s10.29,8.70,18.90,8.70c3.84,0.00,11.13-0.37,11.13-7.58c0.00-5.61-8.23-8.14-17.40-12.73c-9.26-4.58-14.69-11.79-14.69-19.84c0.00-14.41,12.73-23.58,25.17-23.58z"/>
		<path d="M958.43,199.03l0.00,30.97l-17.59,0.00l0.00-77.19l17.59,0.00l0.00,30.78l24.89,0.00l0.00-30.78l17.59,0.00l0.00,77.19l-17.59,0.00l0.00-30.97l-24.89,0.00z"/>
		<path d="M1013.68,191.36c0.00-22.55,17.68-39.95,38.92-39.95c21.43,0.00,38.83,17.40,38.83,39.95s-16.65,40.05-38.83,40.05c-22.83,0.00-38.92-17.50-38.92-40.05z  M1032.67,191.36c0.00,11.51,5.52,23.02,19.93,23.02c14.04,0.00,19.84-11.51,19.84-23.02s-6.18-23.02-19.84-23.02c-13.57,0.00-19.93,11.51-19.93,23.02z"/>
		<path d="M1104.20,152.81l28.16,0.00c15.06,0.00,26.39,7.77,26.39,23.77c0.00,15.91-11.32,24.80-26.39,24.80l-10.57,0.00l0.00,28.63l-17.59,0.00l0.00-77.19z  M1121.79,187.33l4.96,0.00c6.92,0.00,13.47-2.34,13.47-10.20c0.00-7.95-6.55-10.29-13.47-10.29l-4.96,0.00l0.00,20.49z"/>
	</g>
	<g aria-label="WILLA CATHER">
		<path d="M449.48,390.00l-9.26-32.49l-9.26,32.49l-14.67,0.00l-16.49-57.89l14.67,0.00l9.89,39.72l0.35,0.00l10.53-39.72l9.96,0.00l10.53,39.72l0.35,0.00l9.89-39.72l14.60,0.00l-16.49,57.89l-14.60,0.00z"/>
		<path d="M501.92,332.11l0.00,57.89l-13.19,0.00l0.00-57.89l13.19,0.00z"/>
		<path d="M528.54,332.11l0.00,46.32l19.93,0.00l0.00,11.58l-33.12,0.00l0.00-57.89l13.19,0.00z"/>
		<path d="M573.18,332.11l0.00,46.32l19.93,0.00l0.00,11.58l-33.12,0.00l0.00-57.89l13.19,0.00z"/>
		<path d="M635.10,332.11l23.37,57.89l-14.18,0.00l-4.28-11.58l-22.04,0.00l-4.28,11.58l-14.18,0.00l23.37-57.89l12.21,0.00z  M635.52,366.84l-6.46-16.84l-0.14,0.00l-6.46,16.84l13.05,0.00z"/>
		<path d="M718.43,378.07c6.74,0.00,11.37-3.58,11.37-3.58l5.61,11.23s-6.46,5.33-19.02,5.33c-16.35,0.00-31.37-13.33-31.37-29.89c0.00-16.63,14.95-30.11,31.37-30.11c12.56,0.00,19.02,5.33,19.02,5.33l-5.61,11.23s-4.63-3.58-11.37-3.58c-13.26,0.00-19.09,9.26-19.09,16.98c0.00,7.79,5.82,17.05,19.09,17.05z"/>
		<path d="M774.87,332.11l23.37,57.89l-14.18,0.00l-4.28-11.58l-22.04,0.00l-4.28,11.58l-14.18,0.00l23.37-57.89l12.21,0.00z  M775.29,366.84l-6.46-16.84l-0.14,0.00l-6.46,16.84l13.05,0.00z"/>
		<path d="M798.46,343.68l0.00-11.58l40.70,0.00l0.00,11.58l-13.75,0.00l0.00,46.32l-13.19,0.00l0.00-46.32l-13.75,0.00z"/>
		<path d="M862.13,366.77l0.00,23.23l-13.19,0.00l0.00-57.89l13.19,0.00l0.00,23.09l18.67,0.00l0.00-23.09l13.19,0.00l0.00,57.89l-13.19,0.00l0.00-23.23l-18.67,0.00z"/>
		<path d="M940.54,332.11l0.00,11.58l-19.93,0.00l0.00,11.51l19.09,0.00l0.00,11.58l-19.09,0.00l0.00,11.65l19.93,0.00l0.00,11.58l-33.12,0.00l0.00-57.89l33.12,0.00z"/>
		<path d="M953.11,332.11l20.70,0.00c10.74,0.00,18.88,5.82,18.88,17.19c0.00,8.70-4.77,14.53-11.86,16.77l19.93,23.93l-16.77,0.00l-17.68-22.88l0.00,22.88l-13.19,0.00l0.00-57.89z  M966.31,357.79l1.54,0.00c4.98,0.00,10.95-0.35,10.95-7.58s-5.96-7.58-10.95-7.58l-1.54,0.00l0.00,15.16z"/>
	</g>
</svg>
